<svg width="40" height="40" viewBox="0 0 40 40" fill="none" xmlns="http://www.w3.org/2000/svg">
<circle cx="20" cy="20" r="19" stroke="#FF0000" stroke-width="2"/>
<path fill-rule="evenodd" clip-rule="evenodd" d="M11.0469 29.5552C10.8733 29.3749 10.7758 29.1303 10.7758 28.8753C10.7758 28.6203 10.8733 28.3758 11.0469 28.1955L26.4822 12.1601L18.2456 12.1615C17.9998 12.1615 17.7641 12.0601 17.5903 11.8795C17.4166 11.699 17.3189 11.4541 17.3189 11.1988C17.3189 10.9435 17.4166 10.6986 17.5903 10.5181C17.7641 10.3375 17.9998 10.2361 18.2456 10.2361L28.7164 10.2361C28.8381 10.2359 28.9587 10.2607 29.0712 10.309C29.1837 10.3574 29.2859 10.4283 29.372 10.5177C29.4581 10.6071 29.5263 10.7133 29.5728 10.8302C29.6194 10.9471 29.6432 11.0723 29.6431 11.1988V22.0767C29.6431 22.332 29.5454 22.5769 29.3717 22.7574C29.1979 22.9379 28.9622 23.0394 28.7164 23.0394C28.4706 23.0394 28.2349 22.9379 28.0611 22.7574C27.8874 22.5769 27.7897 22.332 27.7897 22.0767L27.791 13.5199L12.3558 29.5552C12.1822 29.7355 11.9468 29.8368 11.7013 29.8368C11.4559 29.8368 11.2205 29.7355 11.0469 29.5552Z" fill="#FF0000"/>
</svg>
