<svg width="48" height="48" viewBox="0 0 48 48" fill="none" xmlns="http://www.w3.org/2000/svg">
<path d="M37.6455 38.1319C45.4482 30.3293 45.4473 17.6778 37.6435 9.87409C29.8398 2.07036 17.1884 2.06946 9.38572 9.87209C1.58309 17.6747 1.58399 30.3262 9.38772 38.1299C17.1915 45.9336 29.8429 45.9345 37.6455 38.1319Z" stroke="black" stroke-width="2" stroke-miterlimit="10"/>
<path d="M12.5507 34.2929C12.1602 34.6834 12.1602 35.3166 12.5507 35.7071C12.9412 36.0976 13.5744 36.0976 13.9649 35.7071L12.5507 34.2929ZM34.2578 15C34.2578 14.4477 33.8101 14 33.2578 14L24.2578 14C23.7055 14 23.2578 14.4477 23.2578 15C23.2578 15.5523 23.7055 16 24.2578 16L32.2578 16L32.2578 24C32.2578 24.5523 32.7055 25 33.2578 25C33.8101 25 34.2578 24.5523 34.2578 24L34.2578 15ZM13.9649 35.7071L33.9649 15.7071L32.5507 14.2929L12.5507 34.2929L13.9649 35.7071Z" fill="black"/>
</svg>
