<svg width="96" height="48" viewBox="0 0 96 48" fill="none" xmlns="http://www.w3.org/2000/svg">
<ellipse cx="24" cy="24" rx="24" ry="24" fill="black"/>
<path fill-rule="evenodd" clip-rule="evenodd" d="M11.9453 24.0008C11.9453 23.7725 12.036 23.5536 12.1974 23.3922C12.3588 23.2308 12.5778 23.1401 12.8061 23.1401H33.1079L27.6903 17.7242C27.5286 17.5626 27.4378 17.3433 27.4378 17.1148C27.4378 16.8862 27.5286 16.667 27.6903 16.5054C27.8519 16.3437 28.0711 16.2529 28.2997 16.2529C28.5283 16.2529 28.7475 16.3437 28.9091 16.5054L35.7952 23.3914C35.8753 23.4714 35.9389 23.5664 35.9823 23.6709C36.0257 23.7755 36.048 23.8876 36.048 24.0008C36.048 24.114 36.0257 24.2262 35.9823 24.3307C35.9389 24.4353 35.8753 24.5303 35.7952 24.6102L28.9091 31.4963C28.7475 31.6579 28.5283 31.7487 28.2997 31.7487C28.0711 31.7487 27.8519 31.6579 27.6903 31.4963C27.5286 31.3347 27.4378 31.1155 27.4378 30.8869C27.4378 30.6583 27.5286 30.4391 27.6903 30.2775L33.1079 24.8616H12.8061C12.5778 24.8616 12.3588 24.7709 12.1974 24.6095C12.036 24.448 11.9453 24.2291 11.9453 24.0008Z" fill="white"/>
<mask id="path-3-inside-1_4612_1923" fill="white">
<path d="M48 2.76562e-06C54.3652 2.48739e-06 60.4697 2.52857 64.9706 7.02944C69.4714 11.5303 72 17.6348 72 24C72 30.3652 69.4714 36.4697 64.9706 40.9706C60.4697 45.4714 54.3652 48 48 48L48 24L48 2.76562e-06Z"/>
</mask>
<path d="M48 2.76562e-06C54.3652 2.48739e-06 60.4697 2.52857 64.9706 7.02944C69.4714 11.5303 72 17.6348 72 24C72 30.3652 69.4714 36.4697 64.9706 40.9706C60.4697 45.4714 54.3652 48 48 48L48 24L48 2.76562e-06Z" stroke="black" stroke-width="4" mask="url(#path-3-inside-1_4612_1923)"/>
<mask id="path-4-inside-2_4612_1923" fill="white">
<path d="M72 2.76562e-06C78.3652 2.48739e-06 84.4697 2.52857 88.9706 7.02944C93.4714 11.5303 96 17.6348 96 24C96 30.3652 93.4714 36.4697 88.9706 40.9706C84.4697 45.4714 78.3652 48 72 48L72 24L72 2.76562e-06Z"/>
</mask>
<path d="M72 2.76562e-06C78.3652 2.48739e-06 84.4697 2.52857 88.9706 7.02944C93.4714 11.5303 96 17.6348 96 24C96 30.3652 93.4714 36.4697 88.9706 40.9706C84.4697 45.4714 78.3652 48 72 48L72 24L72 2.76562e-06Z" stroke="black" stroke-width="4" mask="url(#path-4-inside-2_4612_1923)"/>
</svg>
