<svg width="96" height="48" viewBox="0 0 96 48" fill="none" xmlns="http://www.w3.org/2000/svg">
<ellipse cx="24" cy="24" rx="24" ry="24" fill="#FF0000"/>
<path fill-rule="evenodd" clip-rule="evenodd" d="M11.9453 26.8018C11.9453 26.5638 12.036 26.3356 12.1974 26.1673C12.3588 25.9991 12.5778 25.9045 12.8061 25.9045H33.1079L27.6903 20.2588C27.5286 20.0903 27.4378 19.8618 27.4378 19.6235C27.4378 19.3852 27.5286 19.1567 27.6903 18.9882C27.8519 18.8198 28.0711 18.7251 28.2997 18.7251C28.5283 18.7251 28.7475 18.8198 28.9091 18.9882L35.7952 26.1665C35.8753 26.2499 35.9389 26.3489 35.9823 26.4579C36.0257 26.5669 36.048 26.6838 36.048 26.8018C36.048 26.9198 36.0257 27.0367 35.9823 27.1457C35.9389 27.2547 35.8753 27.3537 35.7952 27.4371L28.9091 34.6154C28.7475 34.7839 28.5283 34.8785 28.2997 34.8785C28.0711 34.8785 27.8519 34.7839 27.6903 34.6154C27.5286 34.4469 27.4378 34.2184 27.4378 33.9801C27.4378 33.7418 27.5286 33.5133 27.6903 33.3448L33.1079 27.6991H12.8061C12.5778 27.6991 12.3588 27.6046 12.1974 27.4363C12.036 27.268 11.9453 27.0398 11.9453 26.8018Z" fill="white"/>
<mask id="path-3-inside-1_4612_2398" fill="white">
<path d="M48 2.76562e-06C54.3652 2.48739e-06 60.4697 2.52857 64.9706 7.02944C69.4714 11.5303 72 17.6348 72 24C72 30.3652 69.4714 36.4697 64.9706 40.9706C60.4697 45.4714 54.3652 48 48 48L48 24L48 2.76562e-06Z"/>
</mask>
<path d="M48 2.76562e-06C54.3652 2.48739e-06 60.4697 2.52857 64.9706 7.02944C69.4714 11.5303 72 17.6348 72 24C72 30.3652 69.4714 36.4697 64.9706 40.9706C60.4697 45.4714 54.3652 48 48 48L48 24L48 2.76562e-06Z" stroke="#FF0000" stroke-width="4" mask="url(#path-3-inside-1_4612_2398)"/>
<mask id="path-4-inside-2_4612_2398" fill="white">
<path d="M72 2.76562e-06C78.3652 2.48739e-06 84.4697 2.52857 88.9706 7.02944C93.4714 11.5303 96 17.6348 96 24C96 30.3652 93.4714 36.4697 88.9706 40.9706C84.4697 45.4714 78.3652 48 72 48L72 24L72 2.76562e-06Z"/>
</mask>
<path d="M72 2.76562e-06C78.3652 2.48739e-06 84.4697 2.52857 88.9706 7.02944C93.4714 11.5303 96 17.6348 96 24C96 30.3652 93.4714 36.4697 88.9706 40.9706C84.4697 45.4714 78.3652 48 72 48L72 24L72 2.76562e-06Z" stroke="#FF0000" stroke-width="4" mask="url(#path-4-inside-2_4612_2398)"/>
</svg>
