<svg width="40" height="40" viewBox="0 0 40 40" fill="none" xmlns="http://www.w3.org/2000/svg">
<circle cx="20" cy="20" r="19" stroke="white" stroke-width="2"/>
<path d="M26.728 12.4155L27.3215 11.7989L26.4821 11.799L18.2456 11.8004C18.092 11.8004 17.9447 11.737 17.8361 11.6242C17.7275 11.5113 17.6665 11.3583 17.6665 11.1988C17.6665 11.0392 17.7275 10.8862 17.8361 10.7734C17.9447 10.6606 18.092 10.5972 18.2456 10.5972L28.7164 10.5972L28.7168 10.5972C28.7928 10.5971 28.8681 10.6126 28.9384 10.6428C29.0086 10.6729 29.0725 10.7172 29.1262 10.773C29.18 10.8289 29.2226 10.8952 29.2516 10.9682C29.2807 11.0411 29.2956 11.1194 29.2955 11.1983L29.2955 11.1988L29.2955 22.0767C29.2955 22.2362 29.2345 22.3892 29.1259 22.5021C29.0173 22.6149 28.87 22.6783 28.7164 22.6783C28.5628 22.6783 28.4155 22.6149 28.3069 22.5021C28.1983 22.3892 28.1373 22.2362 28.1373 22.0767L28.1386 13.5199L28.1388 12.6479L27.5453 13.2645L12.11 29.2999C12.0016 29.4125 11.8546 29.4757 11.7013 29.4757C11.5481 29.4757 11.4011 29.4125 11.2927 29.2999C11.1843 29.1873 11.1234 29.0346 11.1234 28.8753C11.1234 28.7161 11.1843 28.5634 11.2927 28.4508L26.728 12.4155Z" fill="white" stroke="white" stroke-width="0.708837"/>
</svg>
