<svg width="24" height="23" viewBox="0 0 24 23" fill="none" xmlns="http://www.w3.org/2000/svg">
<path d="M22.8667 0.709803C22.9829 0.826047 23.0611 0.974783 23.0909 1.13638C23.1208 1.29797 23.101 1.46483 23.0341 1.61493L13.8415 22.2979C13.7772 22.4426 13.6722 22.5653 13.5391 22.6511C13.4061 22.7368 13.2509 22.7819 13.0927 22.7807C12.9344 22.7795 12.7799 22.7321 12.6482 22.6443C12.5165 22.5565 12.4133 22.4322 12.3513 22.2866L9.03471 14.5418L1.28834 11.2236C1.14326 11.1612 1.01952 11.0578 0.93224 10.9262C0.84496 10.7946 0.797927 10.6404 0.796892 10.4825C0.795858 10.3246 0.840868 10.1698 0.926416 10.037C1.01196 9.90428 1.13434 9.79935 1.27859 9.73505L21.9616 0.542428C22.1115 0.475881 22.278 0.456254 22.4393 0.486128C22.6005 0.516001 22.749 0.593977 22.8651 0.709803H22.8667Z" fill="black"/>
</svg>
