<svg width="20" height="21" viewBox="0 0 20 21" fill="none" xmlns="http://www.w3.org/2000/svg">
<path d="M10 0.109375C15.523 0.109375 20 4.58638 20 10.1094C20 15.6324 15.523 20.1094 10 20.1094C8.23277 20.1124 6.4966 19.6447 4.97002 18.7544L0.00401546 20.1094L1.35602 15.1414C0.464974 13.6143 -0.00308163 11.8774 1.52687e-05 10.1094C1.52687e-05 4.58638 4.47702 0.109375 10 0.109375ZM6.59202 5.40938L6.39201 5.41738C6.26271 5.42628 6.13636 5.46025 6.02002 5.51737C5.91159 5.57889 5.81258 5.65567 5.72602 5.74538C5.60602 5.85838 5.53802 5.95638 5.46502 6.05137C5.09514 6.53228 4.89599 7.12269 4.89902 7.72937C4.90102 8.21937 5.02902 8.69637 5.22902 9.14237C5.63802 10.0444 6.31102 10.9994 7.19902 11.8844C7.41302 12.0974 7.62302 12.3114 7.84902 12.5104C8.95245 13.4818 10.2673 14.1823 11.689 14.5564L12.257 14.6434C12.442 14.6534 12.627 14.6394 12.813 14.6304C13.1042 14.615 13.3885 14.5362 13.646 14.3994C13.7769 14.3317 13.9047 14.2583 14.029 14.1794C14.029 14.1794 14.0714 14.1507 14.154 14.0894C14.289 13.9894 14.372 13.9184 14.484 13.8014C14.568 13.7147 14.638 13.614 14.694 13.4994C14.772 13.3364 14.85 13.0254 14.882 12.7664C14.906 12.5684 14.899 12.4604 14.896 12.3934C14.892 12.2864 14.803 12.1754 14.706 12.1284L14.124 11.8674C14.124 11.8674 13.254 11.4884 12.722 11.2464C12.6663 11.2221 12.6067 11.2082 12.546 11.2054C12.4776 11.1982 12.4084 11.2059 12.3432 11.2278C12.278 11.2497 12.2182 11.2854 12.168 11.3324C12.163 11.3304 12.096 11.3874 11.373 12.2634C11.3315 12.3191 11.2744 12.3613 11.2088 12.3844C11.1433 12.4076 11.0723 12.4107 11.005 12.3934C10.9398 12.376 10.876 12.3539 10.814 12.3274C10.69 12.2754 10.647 12.2554 10.562 12.2194C9.98789 11.9693 9.45646 11.6309 8.98702 11.2164C8.86102 11.1064 8.74402 10.9864 8.62402 10.8704C8.23063 10.4936 7.88777 10.0674 7.60401 9.60238L7.54501 9.50737C7.50328 9.44317 7.46905 9.37439 7.44302 9.30237C7.40502 9.15537 7.50402 9.03738 7.50402 9.03738C7.50402 9.03738 7.74702 8.77137 7.86002 8.62737C7.97002 8.48737 8.06301 8.35138 8.12302 8.25438C8.24102 8.06438 8.27802 7.86938 8.21602 7.71838C7.93602 7.03438 7.64668 6.35404 7.34802 5.67737C7.28902 5.54338 7.11402 5.44737 6.95502 5.42837C6.90102 5.42171 6.84701 5.41638 6.79302 5.41237C6.65874 5.40467 6.52411 5.40601 6.39002 5.41638L6.59202 5.40938Z" fill="black"/>
</svg>
