<svg width="24" height="18" viewBox="0 0 24 18" fill="none" xmlns="http://www.w3.org/2000/svg">
<path d="M0.93125 2.77438C1.07618 2.13935 1.43244 1.57236 1.9417 1.16626C2.45096 0.760155 3.08302 0.539019 3.73438 0.539063H20.9844C21.6357 0.539019 22.2678 0.760155 22.7771 1.16626C23.2863 1.57236 23.6426 2.13935 23.7875 2.77438L12.3594 9.75919L0.93125 2.77438ZM0.859375 4.416V14.628L9.20119 9.51338L0.859375 4.416ZM10.5783 10.3572L1.13394 16.146C1.36728 16.638 1.73557 17.0537 2.19594 17.3446C2.6563 17.6354 3.18981 17.7896 3.73438 17.7891H20.9844C21.5288 17.7892 22.0622 17.6347 22.5223 17.3436C22.9824 17.0524 23.3503 16.6366 23.5834 16.1446L14.139 10.3558L12.3594 11.4439L10.5783 10.3558V10.3572ZM15.5176 9.51481L23.8594 14.628V4.416L15.5176 9.51338V9.51481Z" fill="black"/>
</svg>
