<svg width="96" height="48" viewBox="0 0 96 48" fill="none" xmlns="http://www.w3.org/2000/svg">
<path d="M47.0274 24C47.0274 36.702 36.7243 47 24.0137 47C11.303 47 1 36.702 1 24C1 11.298 11.303 1 24.0137 1C36.7243 1 47.0274 11.298 47.0274 24Z" fill="#FF0000" stroke="#FF0000" stroke-width="2"/>
<path d="M14.3771 11.1412C14.3771 10.9076 14.4693 10.6835 14.6334 10.5183C14.7975 10.3531 15.0201 10.2603 15.2521 10.2603L32.7521 10.2603C32.9842 10.2603 33.2068 10.3531 33.3708 10.5183C33.5349 10.6835 33.6271 10.9076 33.6271 11.1412C33.6271 12.0891 33.6061 12.9912 33.5676 13.8474C34.2591 13.9627 34.9207 14.2162 35.5133 14.593C36.1059 14.9698 36.6176 15.4623 37.0181 16.0413C37.4187 16.6204 37.7 17.2744 37.8455 17.9646C37.9911 18.6549 37.9978 19.3676 37.8654 20.0605C37.733 20.7535 37.4642 21.4127 37.0747 21.9994C36.6852 22.586 36.1829 23.0882 35.5976 23.4764C35.0122 23.8645 34.3556 24.1307 33.6664 24.2592C32.9773 24.3878 32.2695 24.3761 31.5849 24.2249C30.2024 27.5108 28.2984 29.1176 26.6271 29.5299L26.6271 33.3585L29.1209 33.9857C29.4604 34.0703 29.7806 34.2236 30.0606 34.435L33.2771 36.8646C33.424 36.9756 33.5326 37.1302 33.5873 37.3067C33.6421 37.4832 33.6403 37.6726 33.5822 37.848C33.5242 38.0234 33.4127 38.1759 33.2638 38.284C33.1148 38.3921 32.9358 38.4503 32.7521 38.4503L15.2521 38.4503C15.0685 38.4503 14.8895 38.3921 14.7405 38.284C14.5915 38.1759 14.4801 38.0234 14.422 37.848C14.364 37.6726 14.3622 37.4832 14.4169 37.3067C14.4717 37.1302 14.5802 36.9756 14.7271 36.8646L17.9436 34.435C18.2236 34.2236 18.5439 34.0703 18.8834 33.9857L21.3771 33.3585L21.3771 29.5299C19.7059 29.1176 17.8019 27.5108 16.4194 24.2231C15.7344 24.3752 15.0261 24.3875 14.3363 24.2593C13.6466 24.1312 12.9893 23.8652 12.4033 23.477C11.8174 23.0889 11.3146 22.5864 10.9247 21.9994C10.5349 21.4123 10.2658 20.7526 10.1334 20.0591C10.001 19.3656 10.008 18.6524 10.154 17.9617C10.2999 17.2709 10.5819 16.6167 10.9832 16.0375C11.3845 15.4583 11.897 14.9659 12.4904 14.5895C13.0839 14.213 13.7462 13.9601 14.4384 13.8457C14.3972 12.9448 14.3768 12.043 14.3771 11.1412ZM14.5504 15.6164C13.6372 15.7846 12.8278 16.3111 12.3002 17.0802C11.7727 17.8492 11.5702 18.7978 11.7373 19.7171C11.9043 20.6365 12.4273 21.4514 13.1912 21.9826C13.9551 22.5137 14.8972 22.7176 15.8104 22.5494C15.2276 20.6994 14.7814 18.416 14.5504 15.6164ZM32.1956 22.5494C33.1088 22.7176 34.0509 22.5137 34.8148 21.9826C35.5787 21.4514 36.1017 20.6365 36.2688 19.7171C36.4358 18.7978 36.2333 17.8492 35.7058 17.0802C35.1782 16.3111 34.3688 15.7846 33.4556 15.6164C33.2229 18.4178 32.7766 20.6994 32.1956 22.5494ZM16.1341 12.0221C16.1464 12.933 16.1796 13.7946 16.2321 14.6103C16.4596 18.1834 17.0319 20.858 17.7546 22.833C19.2666 26.9629 21.3491 27.879 22.2521 27.879C22.4842 27.879 22.7068 27.9719 22.8708 28.1371C23.0349 28.3023 23.1271 28.5263 23.1271 28.76L23.1271 33.3585C23.1271 33.7513 22.9968 34.1328 22.7567 34.4424C22.5167 34.7521 22.1808 34.9721 21.8024 35.0675L19.3069 35.6947C19.1936 35.7231 19.0871 35.774 18.9936 35.8445L17.8771 36.6884L30.1271 36.6884L29.0106 35.8445C28.9166 35.7739 28.8095 35.7229 28.6956 35.6947L26.2019 35.0675C25.8234 34.9721 25.4875 34.7521 25.2475 34.4424C25.0075 34.1328 24.8771 33.7513 24.8771 33.3585L24.8771 28.76C24.8771 28.5263 24.9693 28.3023 25.1334 28.1371C25.2975 27.9719 25.5201 27.879 25.7521 27.879C26.6551 27.879 28.7376 26.9629 30.2496 22.833C30.9724 20.8597 31.5446 18.1817 31.7721 14.6103C31.8246 13.7946 31.8579 12.933 31.8701 12.0221L16.1341 12.0221Z" fill="white"/>
<mask id="path-3-inside-1_4612_2080" fill="white">
<path d="M47.9746 -1.04911e-06C54.3434 -1.32736e-06 60.4514 2.52856 64.9549 7.02944C69.4583 11.5303 71.9883 17.6348 71.9883 24C71.9883 30.3652 69.4583 36.4697 64.9549 40.9706C60.4514 45.4714 54.3434 48 47.9746 48L47.9746 24L47.9746 -1.04911e-06Z"/>
</mask>
<path d="M47.9746 -1.04911e-06C54.3434 -1.32736e-06 60.4514 2.52856 64.9549 7.02944C69.4583 11.5303 71.9883 17.6348 71.9883 24C71.9883 30.3652 69.4583 36.4697 64.9549 40.9706C60.4514 45.4714 54.3434 48 47.9746 48L47.9746 24L47.9746 -1.04911e-06Z" stroke="white" stroke-width="4" mask="url(#path-3-inside-1_4612_2080)"/>
<mask id="path-4-inside-2_4612_2080" fill="white">
<path d="M71.9824 -1.04911e-06C78.3513 -1.32736e-06 84.4592 2.52856 88.9627 7.02944C93.4661 11.5303 95.9961 17.6348 95.9961 24C95.9961 30.3652 93.4661 36.4697 88.9627 40.9706C84.4592 45.4714 78.3513 48 71.9824 48L71.9824 24L71.9824 -1.04911e-06Z"/>
</mask>
<path d="M71.9824 -1.04911e-06C78.3513 -1.32736e-06 84.4592 2.52856 88.9627 7.02944C93.4661 11.5303 95.9961 17.6348 95.9961 24C95.9961 30.3652 93.4661 36.4697 88.9627 40.9706C84.4592 45.4714 78.3513 48 71.9824 48L71.9824 24L71.9824 -1.04911e-06Z" stroke="white" stroke-width="4" mask="url(#path-4-inside-2_4612_2080)"/>
</svg>
