<svg width="96" height="48" viewBox="0 0 96 48" fill="none" xmlns="http://www.w3.org/2000/svg">
<path d="M47.0274 24C47.0274 36.702 36.7243 47 24.0137 47C11.303 47 1 36.702 1 24C1 11.298 11.303 1 24.0137 1C36.7243 1 47.0274 11.298 47.0274 24Z" fill="#FF0000" stroke="#FF0000" stroke-width="2"/>
<mask id="path-2-inside-1_4612_2059" fill="white">
<path d="M47.9746 -1.04911e-06C54.3434 -1.32736e-06 60.4514 2.52856 64.9549 7.02944C69.4583 11.5303 71.9883 17.6348 71.9883 24C71.9883 30.3652 69.4583 36.4697 64.9549 40.9706C60.4514 45.4714 54.3434 48 47.9746 48L47.9746 24L47.9746 -1.04911e-06Z"/>
</mask>
<path d="M47.9746 -1.04911e-06C54.3434 -1.32736e-06 60.4514 2.52856 64.9549 7.02944C69.4583 11.5303 71.9883 17.6348 71.9883 24C71.9883 30.3652 69.4583 36.4697 64.9549 40.9706C60.4514 45.4714 54.3434 48 47.9746 48L47.9746 24L47.9746 -1.04911e-06Z" stroke="white" stroke-width="4" mask="url(#path-2-inside-1_4612_2059)"/>
<mask id="path-3-inside-2_4612_2059" fill="white">
<path d="M71.9824 -1.04911e-06C78.3513 -1.32736e-06 84.4592 2.52856 88.9627 7.02944C93.4661 11.5303 95.9961 17.6348 95.9961 24C95.9961 30.3652 93.4661 36.4697 88.9627 40.9706C84.4592 45.4714 78.3513 48 71.9824 48L71.9824 24L71.9824 -1.04911e-06Z"/>
</mask>
<path d="M71.9824 -1.04911e-06C78.3513 -1.32736e-06 84.4592 2.52856 88.9627 7.02944C93.4661 11.5303 95.9961 17.6348 95.9961 24C95.9961 30.3652 93.4661 36.4697 88.9627 40.9706C84.4592 45.4714 78.3513 48 71.9824 48L71.9824 24L71.9824 -1.04911e-06Z" stroke="white" stroke-width="4" mask="url(#path-3-inside-2_4612_2059)"/>
<path fill-rule="evenodd" clip-rule="evenodd" d="M35.8578 10.1264C35.9846 10.202 36.0893 10.3075 36.1619 10.433C36.2345 10.5585 36.2727 10.6998 36.2728 10.8436L36.2728 36.1561C36.2728 36.3798 36.1805 36.5944 36.0163 36.7527C35.8522 36.9109 35.6295 36.9998 35.3973 36.9998L30.1443 36.9998C29.9121 36.9998 29.6894 36.9109 29.5252 36.7527C29.361 36.5944 29.2688 36.3798 29.2688 36.1561L29.2688 33.6248L27.5178 33.6248L27.5178 36.1561C27.5178 36.3798 27.4255 36.5944 27.2614 36.7527C27.0972 36.9109 26.8745 36.9998 26.6423 36.9998L10.8833 36.9998C10.6511 36.9998 10.4284 36.9109 10.2642 36.7527C10.1001 36.5944 10.0078 36.3798 10.0078 36.1561L10.0078 26.8748C10.008 26.6978 10.0659 26.5253 10.1733 26.3818C10.2808 26.2382 10.4324 26.1309 10.6067 26.0749L20.5138 22.8923L20.5138 17.5936C20.5138 17.437 20.559 17.2835 20.6444 17.1503C20.7297 17.0171 20.8518 16.9094 20.9971 16.8392L35.0051 10.0892C35.1387 10.0248 35.2872 9.99436 35.4364 10.0009C35.5857 10.0074 35.7308 10.0506 35.8578 10.1264ZM20.5138 24.6709L11.7588 27.4823L11.7588 35.3123L20.5138 35.3123L20.5138 24.6709ZM22.2648 35.3123L25.7668 35.3123L25.7668 32.7811C25.7668 32.5573 25.859 32.3427 26.0232 32.1844C26.1874 32.0262 26.4101 31.9373 26.6423 31.9373L30.1443 31.9373C30.3765 31.9373 30.5992 32.0262 30.7634 32.1844C30.9275 32.3427 31.0198 32.5573 31.0198 32.7811L31.0198 35.3123L34.5218 35.3123L34.5218 12.2087L22.2648 18.115L22.2648 35.3123Z" fill="white"/>
<path d="M13.5078 28.5625L15.2588 28.5625L15.2588 30.25L13.5078 30.25L13.5078 28.5625ZM17.0098 28.5625L18.7608 28.5625L18.7608 30.25L17.0098 30.25L17.0098 28.5625ZM13.5078 31.9375L15.2588 31.9375L15.2588 33.625L13.5078 33.625L13.5078 31.9375ZM17.0098 31.9375L18.7608 31.9375L18.7608 33.625L17.0098 33.625L17.0098 31.9375ZM24.0138 25.1875L25.7648 25.1875L25.7648 26.875L24.0138 26.875L24.0138 25.1875ZM27.5158 25.1875L29.2668 25.1875L29.2668 26.875L27.5158 26.875L27.5158 25.1875ZM24.0138 28.5625L25.7648 28.5625L25.7648 30.25L24.0138 30.25L24.0138 28.5625ZM27.5158 28.5625L29.2668 28.5625L29.2668 30.25L27.5158 30.25L27.5158 28.5625ZM31.0178 25.1875L32.7688 25.1875L32.7688 26.875L31.0178 26.875L31.0178 25.1875ZM31.0178 28.5625L32.7688 28.5625L32.7688 30.25L31.0178 30.25L31.0178 28.5625ZM24.0138 21.8125L25.7648 21.8125L25.7648 23.5L24.0138 23.5L24.0138 21.8125ZM27.5158 21.8125L29.2668 21.8125L29.2668 23.5L27.5158 23.5L27.5158 21.8125ZM31.0178 21.8125L32.7688 21.8125L32.7688 23.5L31.0178 23.5L31.0178 21.8125ZM24.0138 18.4375L25.7648 18.4375L25.7648 20.125L24.0138 20.125L24.0138 18.4375ZM27.5158 18.4375L29.2668 18.4375L29.2668 20.125L27.5158 20.125L27.5158 18.4375ZM31.0178 18.4375L32.7688 18.4375L32.7688 20.125L31.0178 20.125L31.0178 18.4375ZM31.0178 15.0625L32.7688 15.0625L32.7688 16.75L31.0178 16.75L31.0178 15.0625Z" fill="white"/>
</svg>
