<svg width="48" height="48" viewBox="0 0 48 48" fill="none" xmlns="http://www.w3.org/2000/svg">
<path d="M47 24C47 36.7025 36.7025 47 24 47C11.2974 47 1 36.7025 1 24C1 11.2975 11.2975 1 24 1C36.7025 1 47 11.2975 47 24Z" fill="#FF0000" stroke="#FF0000" stroke-width="2"/>
<path d="M13.4832 11C12.8246 11 12.193 11.2541 11.7273 11.7065C11.2616 12.1589 11 12.7725 11 13.4122V31.906C11 32.3325 11.1744 32.7416 11.4849 33.0431C11.7953 33.3447 12.2164 33.5142 12.6555 33.5142V13.4122C12.6555 13.199 12.7427 12.9945 12.8979 12.8437C13.0531 12.6929 13.2637 12.6082 13.4832 12.6082H34.1763C34.1763 12.1816 34.0019 11.7726 33.6915 11.471C33.381 11.1694 32.9599 11 32.5209 11H13.4832Z" fill="white"/>
<path d="M16.7957 14.2163C16.1371 14.2163 15.5055 14.4705 15.0398 14.9228C14.5741 15.3752 14.3125 15.9888 14.3125 16.6285V34.3182C14.3125 34.958 14.5741 35.5716 15.0398 36.0239C15.5055 36.4763 16.1371 36.7305 16.7957 36.7305H26.8708C27.5291 36.7299 28.1603 36.4754 28.6255 36.0229L36.7621 28.1204C37.2273 27.6682 37.4887 27.0551 37.4888 26.4158V16.6285C37.4888 15.9888 37.2272 15.3752 36.7615 14.9228C36.2958 14.4705 35.6642 14.2163 35.0057 14.2163H16.7957ZM15.968 16.6285C15.968 16.4153 16.0552 16.2108 16.2104 16.06C16.3656 15.9092 16.5762 15.8245 16.7957 15.8245H35.0057C35.2252 15.8245 35.4357 15.9092 35.591 16.06C35.7462 16.2108 35.8334 16.4153 35.8334 16.6285V25.4734H28.3839C27.7253 25.4734 27.0937 25.7275 26.628 26.1799C26.1623 26.6323 25.9007 27.2459 25.9007 27.8856V35.1223H16.7957C16.5762 35.1223 16.3656 35.0376 16.2104 34.8868C16.0552 34.736 15.968 34.5315 15.968 34.3182V16.6285ZM27.5561 34.7894V27.8856C27.5561 27.6724 27.6433 27.4678 27.7986 27.3171C27.9538 27.1663 28.1643 27.0815 28.3839 27.0815H35.4907L27.5561 34.7894Z" fill="white"/>
</svg>
