<svg width="96" height="48" viewBox="0 0 96 48" fill="none" xmlns="http://www.w3.org/2000/svg">
<mask id="path-1-inside-1_4612_2094" fill="white">
<path d="M47.9746 -1.04911e-06C54.3434 -1.32736e-06 60.4514 2.52856 64.9549 7.02944C69.4583 11.5303 71.9883 17.6348 71.9883 24C71.9883 30.3652 69.4583 36.4697 64.9549 40.9706C60.4514 45.4714 54.3434 48 47.9746 48L47.9746 24L47.9746 -1.04911e-06Z"/>
</mask>
<path d="M47.9746 -1.04911e-06C54.3434 -1.32736e-06 60.4514 2.52856 64.9549 7.02944C69.4583 11.5303 71.9883 17.6348 71.9883 24C71.9883 30.3652 69.4583 36.4697 64.9549 40.9706C60.4514 45.4714 54.3434 48 47.9746 48L47.9746 24L47.9746 -1.04911e-06Z" stroke="white" stroke-width="4" mask="url(#path-1-inside-1_4612_2094)"/>
<mask id="path-2-inside-2_4612_2094" fill="white">
<path d="M71.9824 -1.04911e-06C78.3513 -1.32736e-06 84.4592 2.52856 88.9627 7.02944C93.4661 11.5303 95.9961 17.6348 95.9961 24C95.9961 30.3652 93.4661 36.4697 88.9627 40.9706C84.4592 45.4714 78.3513 48 71.9824 48L71.9824 24L71.9824 -1.04911e-06Z"/>
</mask>
<path d="M71.9824 -1.04911e-06C78.3513 -1.32736e-06 84.4592 2.52856 88.9627 7.02944C93.4661 11.5303 95.9961 17.6348 95.9961 24C95.9961 30.3652 93.4661 36.4697 88.9627 40.9706C84.4592 45.4714 78.3513 48 71.9824 48L71.9824 24L71.9824 -1.04911e-06Z" stroke="white" stroke-width="4" mask="url(#path-2-inside-2_4612_2094)"/>
<path d="M47.0274 24C47.0274 36.702 36.7243 47 24.0137 47C11.303 47 1 36.702 1 24C1 11.298 11.303 1 24.0137 1C36.7243 1 47.0274 11.298 47.0274 24Z" fill="#FF0000" stroke="#FF0000" stroke-width="2"/>
<path fill-rule="evenodd" clip-rule="evenodd" d="M24.0026 13.2085C21.1405 13.2085 18.3956 14.3455 16.3718 16.3693C14.3479 18.3931 13.2109 21.138 13.2109 24.0002C13.2109 25.728 13.6169 27.359 14.3368 28.8045C14.6261 29.3855 14.7369 30.0785 14.5549 30.761L13.8596 33.3568C13.8304 33.4656 13.8304 33.5801 13.8594 33.6889C13.8885 33.7977 13.9457 33.8969 14.0253 33.9766C14.1048 34.0563 14.204 34.1136 14.3127 34.1428C14.4215 34.1721 14.536 34.1722 14.6448 34.1432L17.2429 33.4478C17.8995 33.2798 18.5949 33.3574 19.1983 33.666C20.6907 34.409 22.3355 34.7944 24.0026 34.7918C26.8647 34.7918 29.6096 33.6549 31.6335 31.631C33.6573 29.6072 34.7943 26.8623 34.7943 24.0002C34.7943 21.138 33.6573 18.3931 31.6335 16.3693C29.6096 14.3455 26.8647 13.2085 24.0026 13.2085ZM11.4609 24.0002C11.4609 17.0737 17.0761 11.4585 24.0026 11.4585C30.9291 11.4585 36.5443 17.0737 36.5443 24.0002C36.5443 30.9267 30.9291 36.5418 24.0026 36.5418C21.9983 36.5418 20.1013 36.0705 18.4178 35.2328C18.1961 35.1148 17.9389 35.0816 17.6944 35.1395L15.0974 35.8337C13.3194 36.3097 11.6931 34.6833 12.1691 32.9053L12.8644 30.3083C12.9224 30.0639 12.8892 29.8067 12.7711 29.585C11.9071 27.8502 11.4586 25.9382 11.4609 24.0002ZM27.8199 19.1258C29.2608 19.6648 30.1276 21.129 30.1276 22.9595C30.1276 24.0282 29.6201 25.0292 29.0134 25.861C28.3963 26.7057 27.6018 27.4757 26.8691 28.0987L26.7606 28.192C25.9008 28.9247 25.1856 29.5337 24.0026 29.5337C22.8184 29.5337 22.1044 28.9247 21.2446 28.192L21.1361 28.0987C20.4023 27.4757 19.6089 26.7057 18.9918 25.861C18.3851 25.0292 17.8776 24.0293 17.8776 22.9595C17.8776 21.129 18.7444 19.6648 20.1853 19.1258C21.4021 18.6708 22.7869 18.966 24.0026 19.9122C25.2194 18.9672 26.6043 18.6708 27.8199 19.1258ZM27.2074 20.765C26.6031 20.5398 25.6418 20.66 24.6279 21.6948C24.5465 21.7781 24.4492 21.8442 24.3418 21.8894C24.2344 21.9345 24.1191 21.9578 24.0026 21.9578C23.8861 21.9578 23.7708 21.9345 23.6634 21.8894C23.556 21.8442 23.4588 21.7781 23.3773 21.6948C22.3634 20.66 21.4021 20.5398 20.7989 20.765C20.2039 20.9867 19.6276 21.668 19.6276 22.9595C19.6276 23.488 19.8901 24.1227 20.4046 24.8285C20.9098 25.5203 21.5911 26.1888 22.2689 26.7652C23.2828 27.6285 23.5196 27.7837 24.0026 27.7837C24.4856 27.7837 24.7224 27.6273 25.7363 26.7652C26.4141 26.1888 27.0954 25.5203 27.6006 24.8285C28.1151 24.1227 28.3776 23.488 28.3776 22.9595C28.3776 21.668 27.8001 20.9867 27.2074 20.765Z" fill="white"/>
</svg>
