<svg width="48" height="48" viewBox="0 0 48 48" fill="none" xmlns="http://www.w3.org/2000/svg">
<circle cx="24" cy="24" r="23" fill="#FF0000" stroke="#FF0000" stroke-width="2"/>
<g clip-path="url(#clip0_4612_2106)">
<path d="M8 24.7509C8.50515 23.7635 9.4163 23.649 10.3605 23.7444C12.2489 23.9352 14.1373 24.1499 16.0257 24.3502C16.1058 24.3743 16.1911 24.3743 16.2712 24.3502L18.9669 22.7809L17.0785 22.0607C15.7472 21.5551 14.4206 21.0447 13.0892 20.5534C12.876 20.507 12.6816 20.3966 12.5316 20.2365C12.3816 20.0765 12.2831 19.8744 12.2489 19.6567C12.2243 19.4372 12.2668 19.2154 12.3706 19.021C12.4744 18.8266 12.6346 18.6689 12.8296 18.5691C14.4819 17.4387 14.4064 17.3147 16.5261 17.453C19.5098 17.6438 22.4935 17.7869 25.496 17.93C25.9681 17.9586 26.4402 17.9968 26.9123 18.0015C27.066 17.9954 27.2156 17.9494 27.3467 17.868C28.8952 16.9712 30.4389 16.0745 31.978 15.1635C32.9841 14.5503 34.1132 14.1722 35.2827 14.0569C35.3534 14.0461 35.423 14.0286 35.4904 14.0044H36.5007C37.0389 14.0998 37.577 14.2238 38.12 14.2906C38.4862 14.3065 38.839 14.4346 39.1316 14.6578C39.4242 14.881 39.6427 15.1887 39.7582 15.5403V16.1985C39.2383 17.2906 38.4357 18.2201 37.4354 18.8887C36.2316 19.7521 34.9475 20.5057 33.6586 21.245C33.0952 21.5569 32.6439 22.0412 32.3698 22.6283C30.2925 26.8417 28.1917 31.0391 26.0673 35.2207C25.8535 35.6273 25.5458 35.9759 25.1703 36.2367C24.5424 36.6803 23.8437 37.0237 23.178 37.4101H22.6681C22.3852 37.2966 22.1553 37.079 22.0248 36.801C21.8942 36.5231 21.8728 36.2056 21.9647 35.9123C22.4368 33.1983 22.8711 30.4747 23.3196 27.7511C23.348 27.5889 23.3668 27.422 23.3999 27.2074L20.7184 28.0564C19.033 28.5906 17.3523 29.1344 15.6622 29.6591C15.2072 29.81 14.7224 29.8454 14.2506 29.7622C13.7788 29.679 13.3346 29.4798 12.957 29.1821C11.4652 28.0723 9.98125 26.9498 8.50515 25.8146C8.31215 25.6215 8.14545 25.4034 8.00945 25.1659L8 24.7509ZM31.2226 22.6188C30.7788 22.8668 30.4389 23.0671 30.0896 23.2436C30.0328 23.2788 29.9694 23.3015 29.9034 23.3102C29.8373 23.3189 29.7703 23.3133 29.7065 23.294C29.6427 23.2746 29.5838 23.2418 29.5334 23.1978C29.4831 23.1538 29.4426 23.0995 29.4145 23.0385C29.3834 22.9824 29.3639 22.9206 29.3571 22.8567C29.3503 22.7928 29.3563 22.7282 29.3748 22.6667C29.3933 22.6052 29.4239 22.5482 29.4648 22.4989C29.5057 22.4497 29.556 22.4094 29.6127 22.3803C29.7119 22.3135 29.8204 22.2562 29.9243 22.1942C31.8127 21.1067 33.7011 20.024 35.5895 18.9269C36.6058 18.3137 37.5137 17.5334 38.2758 16.6183C38.9556 15.8312 38.7479 15.4544 37.8037 15.2541C36.0529 14.7954 34.1949 15.031 32.6106 15.9123L26.2136 19.6948C23.0663 21.536 19.919 23.374 16.7716 25.2088C16.6026 25.3201 16.4067 25.3828 16.2051 25.39C15.733 25.39 15.2609 25.2946 14.7652 25.2469C13.1931 25.08 11.6257 24.9083 10.0442 24.77C9.87904 24.742 9.70995 24.7488 9.54749 24.7898C9.38503 24.8308 9.2327 24.9053 9.1 25.0085L9.18497 25.1086C10.6579 26.2295 12.1309 27.3552 13.6085 28.4475C13.8608 28.6395 14.1557 28.7663 14.4675 28.817C14.7793 28.8677 15.0987 28.8408 15.3978 28.7385C16.3751 28.4332 17.3617 28.1518 18.3248 27.7845C20.1802 27.1167 22.1536 26.7924 23.8956 25.8003C24.2686 25.5904 24.6557 25.9433 24.5801 26.3869C24.1741 28.88 23.7634 31.3746 23.348 33.8708C23.2111 34.6817 23.0789 35.4974 22.9325 36.375C23.4424 36.0841 23.8767 35.8217 24.3488 35.5785C24.7609 35.3633 25.0923 35.0184 25.293 34.5959C26.8667 31.435 28.4403 28.2758 30.014 25.1182L31.2226 22.6188ZM25.4346 18.9269L23.7445 18.8315C21.1433 18.6884 18.5514 18.6025 15.9454 18.3831C14.7982 18.2877 14.057 18.8601 13.2309 19.4802C13.2922 19.5136 13.3159 19.5374 13.3489 19.5517C15.5111 20.3769 17.6733 21.2069 19.8355 22.0225C19.9808 22.0582 20.134 22.0378 20.2652 21.9653C21.8939 21.0113 23.5226 20.0573 25.1467 19.1034C25.2455 19.0494 25.3416 18.9905 25.4346 18.9269Z" fill="white"/>
<path d="M24.727 21.7559C24.8562 21.822 24.9716 21.9127 25.0669 22.023C25.2431 22.2932 25.4009 22.5753 25.539 22.8672C25.5761 22.9237 25.6009 22.9875 25.6118 23.0543C25.6226 23.1212 25.6191 23.1897 25.6017 23.2551C25.5843 23.3205 25.5533 23.3815 25.5107 23.4339C25.4681 23.4862 25.415 23.5289 25.3549 23.5589C25.3002 23.5925 25.2392 23.6145 25.1758 23.6236C25.1123 23.6327 25.0477 23.6286 24.9859 23.6117C24.9241 23.5947 24.8663 23.5652 24.8161 23.525C24.7659 23.4847 24.7244 23.4346 24.694 23.3776C24.506 23.0821 24.3342 22.7763 24.1794 22.4618C24.0425 22.1374 24.2785 21.7702 24.727 21.7559Z" fill="white"/>
<path d="M23.5892 24.3693C23.4287 24.5554 23.3295 24.7652 23.1832 24.8082C23.0916 24.834 22.9953 24.838 22.9019 24.8198C22.8084 24.8016 22.7205 24.7617 22.645 24.7032C22.3991 24.3738 22.1975 24.0129 22.0454 23.63C22.0321 23.5433 22.0398 23.4547 22.0677 23.3716C22.0957 23.2885 22.1431 23.2135 22.2059 23.153C22.324 23.0576 22.6497 23.0242 22.7158 23.1053C23.0274 23.4726 23.2823 23.9067 23.5892 24.3693Z" fill="white"/>
<path d="M26.8756 20.5059C27.0031 20.5749 27.118 20.6652 27.2155 20.773C27.3901 21.0459 27.5478 21.3294 27.6876 21.622C27.7217 21.6762 27.7446 21.7367 27.7549 21.8C27.7653 21.8633 27.7629 21.928 27.7479 21.9904C27.733 22.0527 27.7057 22.1114 27.6677 22.1628C27.6298 22.2143 27.582 22.2575 27.5271 22.2898C27.4723 22.3288 27.4099 22.3556 27.344 22.3683C27.2782 22.3811 27.2104 22.3795 27.1451 22.3637C27.0799 22.3479 27.0188 22.3183 26.9658 22.2767C26.9128 22.2352 26.8692 22.1827 26.8379 22.1228C26.6547 21.8385 26.4876 21.5439 26.3374 21.2404C26.1816 20.8875 26.413 20.5106 26.8756 20.5059Z" fill="white"/>
<path d="M21.4457 25.6144C21.2758 25.8052 21.1719 26.0246 21.0208 26.0914C20.9274 26.1108 20.8307 26.1084 20.7383 26.0845C20.6459 26.0605 20.56 26.0156 20.4874 25.9531C20.2488 25.6489 20.0548 25.3115 19.9114 24.9514C19.8916 24.857 19.8945 24.7592 19.92 24.6662C19.9455 24.5732 19.9927 24.4878 20.0578 24.4172C20.1758 24.317 20.5299 24.2836 20.5912 24.3695C20.8994 24.7676 21.1847 25.1833 21.4457 25.6144Z" fill="white"/>
<path d="M33.3215 16.7614C33.4394 16.8223 33.5451 16.9048 33.6331 17.0047C33.8196 17.2879 33.9883 17.5826 34.1383 17.8871C34.1734 17.941 34.1966 18.0018 34.2063 18.0656C34.216 18.1293 34.212 18.1944 34.1945 18.2565C34.177 18.3185 34.1465 18.376 34.105 18.425C34.0635 18.4741 34.0121 18.5135 33.9542 18.5406C33.901 18.5744 33.8417 18.5972 33.7798 18.6076C33.7178 18.618 33.6544 18.6158 33.5933 18.6012C33.5322 18.5865 33.4746 18.5597 33.4239 18.5222C33.3732 18.4848 33.3304 18.4375 33.2979 18.3832C33.104 18.0921 32.9305 17.7877 32.7786 17.4721C32.6134 17.1191 32.8542 16.7519 33.3215 16.7614Z" fill="white"/>
<path d="M29.3396 21.1257C29.2179 21.0705 29.1074 20.9928 29.0138 20.8968C28.8276 20.6142 28.6574 20.3212 28.504 20.0191C28.468 19.9622 28.4444 19.8983 28.4347 19.8315C28.425 19.7647 28.4294 19.6966 28.4477 19.6317C28.466 19.5668 28.4977 19.5065 28.5408 19.4549C28.5839 19.4033 28.6373 19.3615 28.6975 19.3323C28.7519 19.3002 28.812 19.2794 28.8745 19.2711C28.9369 19.2629 29.0004 19.2673 29.0611 19.2842C29.1218 19.3011 29.1785 19.3301 29.228 19.3695C29.2774 19.4088 29.3186 19.4578 29.349 19.5135C29.5403 19.8079 29.7137 20.1137 29.8683 20.4293C30.0288 20.7537 29.7975 21.1257 29.3396 21.1257Z" fill="white"/>
<path d="M32.1649 19.366C31.9949 19.5568 31.8911 19.7762 31.7353 19.8191C31.6411 19.8388 31.5437 19.8356 31.451 19.8099C31.3583 19.7842 31.2729 19.7367 31.2018 19.6713C30.963 19.3681 30.7705 19.0304 30.6306 18.6696C30.6101 18.5756 30.6132 18.478 30.6395 18.3855C30.6659 18.293 30.7148 18.2087 30.7817 18.1402C30.8997 18.04 31.2538 18.0114 31.3199 18.0972C31.622 18.474 31.8816 18.9033 32.1649 19.366Z" fill="white"/>
</g>
<defs>
<clipPath id="clip0_4612_2106">
<rect width="31.7109" height="23.4057" fill="white" transform="translate(8 14)"/>
</clipPath>
</defs>
</svg>
