<svg width="48" height="48" viewBox="0 0 48 48" fill="none" xmlns="http://www.w3.org/2000/svg">
<path d="M47 24C47 36.7025 36.7025 47 24 47C11.2974 47 1 36.7025 1 24C1 11.2975 11.2975 1 24 1C36.7025 1 47 11.2975 47 24Z" fill="#FF0000" stroke="#FF0000" stroke-width="2"/>
<path d="M23.8858 11.8752L27.7608 15.7502M27.7608 15.7502L32.9275 10.5835M27.7608 15.7502H20.9193C16.0484 15.7502 13.6136 15.7515 12.0998 17.264C10.5859 18.7765 10.5859 21.2126 10.5859 26.0835C10.5859 30.9544 10.5872 33.3892 12.0998 34.903C13.6123 36.4168 16.0484 36.4168 20.9193 36.4168H26.0859C30.9568 36.4168 33.3916 36.4155 34.9054 34.903C36.4193 33.3905 36.4193 30.9544 36.4193 26.0835C36.4193 21.2126 36.418 18.7778 34.9054 17.264C33.3929 15.7502 30.9568 15.7502 26.0859 15.7502H27.7608Z" stroke="white" stroke-width="1.5" stroke-linecap="round" stroke-linejoin="round"/>
</svg>
