<svg width="159" height="158" viewBox="0 0 159 158" fill="none" xmlns="http://www.w3.org/2000/svg">
<path d="M81.7123 157.782V90.0277L107.572 152.663L111.597 150.978L85.7158 88.2994L133.671 136.255L136.756 133.17L88.8662 85.2803L151.392 111.336L153.055 107.311L90.4195 81.2111H158.284V76.8356H90.507L153.142 50.9764L151.48 46.951L88.8006 72.832L136.756 24.8766L133.671 21.7918L85.7815 69.6817L111.838 7.17769L107.812 5.49312L81.7123 68.1284V0.264404H77.3368V68.019L51.4776 5.40561L47.4521 7.0683L73.3332 69.7473L25.3778 21.7918L22.293 24.8766L70.1828 72.7664L7.65695 46.7103L5.99438 50.7358L68.6295 76.8356H0.765625V81.2111H68.542L5.90678 107.07L7.56949 111.096L70.2485 85.2147L22.293 133.17L25.3778 136.255L73.2676 88.365L47.2115 150.891L51.237 152.554L77.3368 89.9183V157.782H81.7123Z" fill="#D9D9D9"/>
</svg>
