<svg width="24" height="24" viewBox="0 0 24 24" fill="none" xmlns="http://www.w3.org/2000/svg">
<path d="M12 24C18.6274 24 24 18.6274 24 12C24 5.37258 18.6274 0 12 0C5.37258 0 0 5.37258 0 12C0 18.6274 5.37258 24 12 24Z" fill="black"/>
<path fill-rule="evenodd" clip-rule="evenodd" d="M2 11.8438C2 11.6716 2.0684 11.5065 2.19015 11.3847C2.31191 11.263 2.47704 11.1946 2.64922 11.1946H17.9618L13.8756 7.10969C13.7537 6.98778 13.6852 6.82244 13.6852 6.65004C13.6852 6.47764 13.7537 6.3123 13.8756 6.19039C13.9975 6.06849 14.1628 6 14.3352 6C14.5076 6 14.673 6.06849 14.7949 6.19039L19.9886 11.3842C20.0491 11.4445 20.0971 11.5161 20.1298 11.595C20.1625 11.6739 20.1794 11.7584 20.1794 11.8438C20.1794 11.9292 20.1625 12.0138 20.1298 12.0926C20.0971 12.1715 20.0491 12.2432 19.9886 12.3035L14.7949 17.4972C14.673 17.6191 14.5076 17.6876 14.3352 17.6876C14.1628 17.6876 13.9975 17.6191 13.8756 17.4972C13.7537 17.3753 13.6852 17.21 13.6852 17.0376C13.6852 16.8652 13.7537 16.6998 13.8756 16.5779L17.9618 12.493H2.64922C2.47704 12.493 2.31191 12.4246 2.19015 12.3029C2.0684 12.1811 2 12.016 2 11.8438Z" fill="white"/>
</svg>
