<svg width="24" height="25" viewBox="0 0 24 25" fill="none" xmlns="http://www.w3.org/2000/svg">
<circle cx="12" cy="12.8848" r="11.5864" transform="rotate(90 12 12.8848)" fill="#FF0000" stroke="#FF0000" stroke-width="0.827267"/>
<g clip-path="url(#clip0_4612_1845)">
<path d="M14.8664 12.2179L14.8712 12.2021L14.8664 12.2179ZM14.8664 12.2179L14.8659 12.2197L14.8664 12.2179ZM14.8778 12.2243L14.8778 12.2243L14.8778 12.2243ZM14.8778 12.2243L14.8825 12.2189L14.8778 12.2243Z" fill="white" stroke="white" stroke-width="3.12644"/>
<path d="M12.0556 11.6514C12.1264 11.6876 12.1896 11.7373 12.2418 11.7977C12.3384 11.9458 12.4248 12.1003 12.5005 12.2602C12.5208 12.2911 12.5344 12.3261 12.5403 12.3627C12.5462 12.3994 12.5444 12.4369 12.5348 12.4727C12.5253 12.5086 12.5083 12.542 12.485 12.5706C12.4616 12.5993 12.4326 12.6227 12.3996 12.6391C12.3696 12.6576 12.3362 12.6696 12.3015 12.6746C12.2667 12.6796 12.2313 12.6773 12.1975 12.6681C12.1636 12.6588 12.1319 12.6426 12.1044 12.6206C12.0769 12.5985 12.0542 12.5711 12.0375 12.5398C11.9346 12.3779 11.8404 12.2104 11.7556 12.0381C11.6806 11.8604 11.8099 11.6592 12.0556 11.6514Z" fill="white"/>
<path d="M11.4352 13.0847C11.3472 13.1866 11.2929 13.3016 11.2127 13.3251C11.1625 13.3393 11.1098 13.3415 11.0586 13.3315C11.0074 13.3215 10.9593 13.2997 10.9179 13.2677C10.7832 13.0872 10.6727 12.8895 10.5894 12.6797C10.5821 12.6322 10.5863 12.5836 10.6016 12.5381C10.617 12.4926 10.6429 12.4515 10.6774 12.4184C10.742 12.3661 10.9205 12.3478 10.9567 12.3923C11.1274 12.5935 11.2671 12.8313 11.4352 13.0847Z" fill="white"/>
<path d="M13.2276 10.9678C13.2974 11.0056 13.3604 11.055 13.4138 11.1141C13.5095 11.2636 13.5958 11.4189 13.6724 11.5792C13.6911 11.6089 13.7036 11.6421 13.7093 11.6768C13.715 11.7114 13.7137 11.7469 13.7055 11.7811C13.6973 11.8152 13.6823 11.8473 13.6615 11.8755C13.6408 11.9037 13.6146 11.9274 13.5845 11.9451C13.5545 11.9665 13.5203 11.9811 13.4842 11.9881C13.4481 11.9951 13.411 11.9942 13.3752 11.9856C13.3395 11.9769 13.306 11.9607 13.277 11.9379C13.248 11.9152 13.2241 11.8864 13.2069 11.8536C13.1065 11.6978 13.015 11.5364 12.9328 11.3702C12.8474 11.1768 12.9741 10.9704 13.2276 10.9678Z" fill="white"/>
<path d="M10.2539 13.7656C10.1608 13.8701 10.1039 13.9903 10.0212 14.0269C9.96994 14.0376 9.917 14.0363 9.86636 14.0231C9.81571 14.01 9.7687 13.9854 9.72889 13.9511C9.59817 13.7845 9.49191 13.5997 9.41336 13.4024C9.4025 13.3507 9.4041 13.2971 9.41805 13.2461C9.43201 13.1952 9.45791 13.1484 9.49354 13.1097C9.5582 13.0548 9.75218 13.0365 9.7858 13.0836C9.95461 13.3017 10.1109 13.5294 10.2539 13.7656Z" fill="white"/>
<path d="M16.7635 8.91612C16.828 8.94945 16.8859 8.99464 16.9342 9.04938C17.0363 9.20453 17.1287 9.36599 17.2109 9.53281C17.2301 9.56232 17.2429 9.59568 17.2482 9.6306C17.2535 9.66552 17.2513 9.70119 17.2417 9.73518C17.2321 9.76916 17.2154 9.80065 17.1927 9.82751C17.17 9.85437 17.1418 9.87596 17.11 9.89081C17.0809 9.90936 17.0484 9.92184 17.0145 9.92754C16.9806 9.93325 16.9458 9.93205 16.9124 9.92402C16.8789 9.91598 16.8473 9.90129 16.8195 9.88078C16.7917 9.86027 16.7683 9.83436 16.7505 9.80458C16.6443 9.64513 16.5492 9.47835 16.466 9.30547C16.3755 9.1121 16.5074 8.91089 16.7635 8.91612Z" fill="white"/>
<path d="M14.5844 11.3073C14.5177 11.277 14.4572 11.2345 14.406 11.1819C14.3039 11.0271 14.2107 10.8665 14.1266 10.7011C14.1069 10.6699 14.094 10.6349 14.0887 10.5983C14.0834 10.5617 14.0858 10.5244 14.0958 10.4888C14.1058 10.4532 14.1232 10.4202 14.1468 10.3919C14.1704 10.3637 14.1997 10.3408 14.2327 10.3248C14.2625 10.3072 14.2954 10.2958 14.3296 10.2913C14.3638 10.2867 14.3986 10.2892 14.4318 10.2984C14.4651 10.3077 14.4962 10.3236 14.5233 10.3451C14.5504 10.3667 14.5729 10.3936 14.5896 10.4241C14.6944 10.5854 14.7894 10.7529 14.8741 10.9258C14.962 11.1035 14.8353 11.3073 14.5844 11.3073Z" fill="white"/>
<path d="M16.1292 10.3421C16.036 10.4466 15.9792 10.5668 15.8938 10.5903C15.8422 10.6011 15.7888 10.5994 15.738 10.5853C15.6872 10.5712 15.6405 10.5452 15.6015 10.5093C15.4707 10.3432 15.3652 10.1582 15.2886 9.96057C15.2774 9.90908 15.279 9.85558 15.2935 9.80492C15.308 9.75426 15.3347 9.70805 15.3714 9.67051C15.436 9.61564 15.63 9.59995 15.6662 9.64699C15.8317 9.85343 15.974 10.0886 16.1292 10.3421Z" fill="white"/>
</g>
<defs>
<clipPath id="clip0_4612_1845">
<rect width="17.3726" height="12.8226" fill="white" transform="translate(2.88281 7.40234)"/>
</clipPath>
</defs>
</svg>
