<svg width="326" height="393" viewBox="0 0 326 393" fill="none" xmlns="http://www.w3.org/2000/svg">
<path fill-rule="evenodd" clip-rule="evenodd" d="M6.79122e-07 86C8.03448e-07 77.1635 7.16345 70 16 70L56 70L208 70C216.837 70 224 62.8365 224 54L224 21.8726C224 9.79268 233.793 -1.02194e-05 245.873 -1.07474e-05L304.127 -1.32938e-05C316.207 -1.38219e-05 326 9.79268 326 21.8726L326 240.127C326 252.207 316.207 262 304.127 262L265 262C256.163 262 249 269.163 249 278L249 314C249 322.837 241.837 330 233 330L72 330C63.1634 330 56 337.163 56 346L56 377C56 385.837 48.8366 393 40 393L16 393C7.16344 393 -3.13118e-07 385.837 -6.99377e-07 377L-2.75382e-06 330L6.79122e-07 86Z" fill="#EEEEEE"/>
</svg>
