<svg width="415" height="255" viewBox="0 0 415 255" fill="none" xmlns="http://www.w3.org/2000/svg">
<path fill-rule="evenodd" clip-rule="evenodd" d="M1.18109e-06 124.465L3.30291e-07 30.4653C4.76896e-07 13.6398 13.6398 -4.63726e-05 30.4654 -4.71081e-05L250.535 -4.14688e-05C267.36 -4.22043e-05 281 13.6398 281 30.4653L281 62C281 79.6731 295.327 94 313 94L384.535 94C401.36 94 415 107.64 415 124.465L415 224.535C415 241.36 401.36 255 384.535 255L30.4654 255C18.875 255 8.79632 248.528 3.64655 239C1.32048 234.697 -1.10285e-06 229.77 -1.33168e-06 224.535C-1.33169e-06 224.535 -1.33169e-06 224.535 -1.33169e-06 224.535L1.18109e-06 124.465Z" fill="#EEEEEE"/>
</svg>
