<svg width="326" height="240" viewBox="0 0 326 240" fill="none" xmlns="http://www.w3.org/2000/svg">
<path fill-rule="evenodd" clip-rule="evenodd" d="M47.8726 -2.09258e-06L16 -6.99383e-07C7.16345 -3.13125e-07 1.0098e-06 7.16344 9.40143e-07 16L-6.99383e-07 224C-7.69035e-07 232.837 7.16344 240 16 240L233 240C241.837 240 249 232.837 249 224L249 193C249 184.163 256.163 177 265 177L304.127 177C316.207 177 326 167.207 326 155.127L326 21.8726C326 9.79268 316.207 1.43693e-06 304.127 1.96496e-06L249 -1.08841e-05L47.8726 -2.09258e-06Z" fill="#EEEEEE"/>
</svg>
