<svg width="357" height="255" viewBox="0 0 357 255" fill="none" xmlns="http://www.w3.org/2000/svg">
<path fill-rule="evenodd" clip-rule="evenodd" d="M317 90.9999C299.327 90.9999 285 76.6731 285 59L285 32C285 14.3269 270.673 -1.18315e-05 253 -1.1059e-05L32 -1.66576e-05C14.3269 -1.5885e-05 -1.09337e-06 14.3269 -1.11923e-06 32L-1.39876e-06 223C-1.42463e-06 240.673 14.3269 255 32 255L285 255L335.127 255C347.207 255 357 245.207 357 233.127L357 112.873C357 100.793 347.207 90.9999 335.127 90.9999L317 90.9999Z" fill="#EEEEEE"/>
</svg>
