<svg width="285" height="35" viewBox="0 0 285 35" fill="none" xmlns="http://www.w3.org/2000/svg">
<path fill-rule="evenodd" clip-rule="evenodd" d="M10.8287 33.8398L10.8287 6.38122H0V0H29.489V6.38122L18.6602 6.38122V33.8398L10.8287 33.8398ZM48.1707 34.4199C43.3687 34.4199 39.6141 33.0824 36.9069 30.4075C34.1997 27.7325 32.8461 23.9134 32.8461 18.9503V8.65071H40.6776L40.6776 18.6602C40.6776 21.8831 41.3383 24.2035 42.6597 25.6215C43.981 27.0396 45.8341 27.7486 48.219 27.7486C50.6039 27.7486 52.4571 27.0396 53.7784 25.6215C55.0998 24.2035 55.7605 21.8831 55.7605 18.6602L55.7605 8.65071H63.4953V18.9503C63.4953 23.9134 62.1417 27.7325 59.4345 30.4075C56.7273 33.0824 52.9727 34.4199 48.1707 34.4199ZM63.4953 6.61523V0H55.7605V6.61523H63.4953ZM40.6776 6.61523V0H32.8461V6.61523H40.6776ZM71.2343 0V33.8398H79.0657V24.413H85.882C86.0054 24.413 86.1282 24.4122 86.2502 24.4106L92.7467 33.8398H101.207L93.6472 22.9918L93.7135 22.9627C95.9051 21.9959 97.597 20.61 98.7895 18.8053C99.9819 16.9682 100.578 14.7928 100.578 12.279C100.578 9.73297 99.9819 7.54144 98.7895 5.70442C97.597 3.8674 95.9051 2.46547 93.7135 1.49862C91.522 0.499541 88.9115 0 85.882 0H71.2343ZM79.0657 18.1768H85.447C87.8641 18.1768 89.6689 17.6611 90.8613 16.6298C92.0538 15.5663 92.65 14.116 92.65 12.279C92.65 10.4098 92.0538 8.95949 90.8613 7.92818C89.6689 6.89687 87.8641 6.38122 85.447 6.38122H79.0657V18.1768Z" fill="#FF0000"/>
<path fill-rule="evenodd" clip-rule="evenodd" d="M237.274 35C234.599 35 232.133 34.581 229.877 33.7431C227.653 32.8729 225.704 31.6483 224.028 30.0691C222.384 28.4899 221.095 26.6367 220.16 24.5097C219.258 22.3826 218.807 20.046 218.807 17.5C218.807 14.954 219.258 12.6174 220.16 10.4903C221.095 8.36326 222.4 6.51013 224.076 4.93094C225.752 3.35175 227.718 2.14318 229.974 1.30525C232.23 0.435082 234.711 0 237.419 0C240.416 0 243.107 0.499539 245.492 1.49862C247.909 2.4977 249.939 3.94797 251.583 5.84945L246.555 10.4903C245.331 9.2012 243.993 8.25046 242.543 7.63812C241.093 6.99356 239.513 6.67127 237.805 6.67127C236.162 6.67127 234.663 6.9291 233.31 7.44475C231.956 7.9604 230.78 8.70166 229.781 9.66851C228.814 10.6354 228.056 11.7795 227.508 13.1008C226.993 14.4222 226.735 15.8886 226.735 17.5C226.735 19.0792 226.993 20.5295 227.508 21.8508C228.056 23.1722 228.814 24.3324 229.781 25.3315C230.78 26.2983 231.94 27.0396 233.261 27.5553C234.615 28.0709 236.097 28.3287 237.709 28.3287C239.256 28.3287 240.754 28.087 242.205 27.6036C242.743 27.4164 243.274 27.1846 243.8 26.9083V16.9682H250.955V30.6975C249.118 32.0833 246.974 33.1469 244.525 33.8881C242.108 34.6294 239.691 35 237.274 35ZM106.781 34.4199V0.580107L113.259 0.580107L125.935 21.5923L138.397 0.580108L144.827 0.580108L144.924 34.4199H137.575L137.532 14.1091L127.569 30.8425H124.04L114.129 14.5467V34.4199H106.781ZM160.735 28.1354V20.3039H176.447V14.2127H160.735V6.86464L178.525 6.86464V0.580108L152.952 0.580108V34.4199H179.154V28.1354H160.735ZM185.385 0.580108V34.4199H193.217V24.9931H200.033C200.156 24.9931 200.279 24.9923 200.401 24.9907L206.898 34.4199H215.357L207.798 23.5719L207.864 23.5428C210.056 22.576 211.748 21.1901 212.94 19.3854C214.133 17.5483 214.729 15.3729 214.729 12.8591C214.729 10.3131 214.133 8.12155 212.94 6.28453C211.748 4.44751 210.056 3.04558 207.864 2.07873C205.673 1.07965 203.062 0.580108 200.033 0.580108L185.385 0.580108ZM193.217 18.7569H199.598C202.015 18.7569 203.82 18.2413 205.012 17.2099C206.205 16.1464 206.801 14.6961 206.801 12.8591C206.801 10.9899 206.205 9.53959 205.012 8.50829C203.82 7.47698 202.015 6.96133 199.598 6.96133H193.217V18.7569ZM266.012 20.3039V28.1354H284.431V34.4199H258.229V0.580109L283.803 0.580109V6.86464H266.012V14.2127H281.724V20.3039L266.012 20.3039Z" fill="black"/>
</svg>
