<svg width="305" height="37" viewBox="0 0 305 37" fill="none" xmlns="http://www.w3.org/2000/svg">
<circle cx="286.224" cy="18.0576" r="17.9736" fill="black"/>
<path d="M279.905 25L279.905 10.9124L280.578 11.6273L276.436 11.6273L276.436 10.2817L281.419 10.2817L281.419 25L279.905 25ZM289.584 25.1262C288.533 25.1262 287.531 24.9579 286.577 24.6215C285.624 24.2711 284.867 23.8085 284.307 23.2338L285.042 22.0353C285.505 22.5259 286.136 22.9324 286.935 23.2548C287.748 23.5772 288.624 23.7384 289.563 23.7384C290.811 23.7384 291.757 23.4651 292.402 22.9184C293.06 22.3577 293.39 21.6288 293.39 20.7317C293.39 20.1009 293.236 19.5612 292.927 19.1127C292.633 18.6501 292.128 18.2926 291.413 18.0403C290.699 17.788 289.717 17.6619 288.47 17.6619L285.337 17.6619L286.094 10.2817L294.147 10.2817L294.147 11.6273L286.704 11.6273L287.482 10.8914L286.83 17.0731L286.052 16.3162L288.806 16.3162C290.292 16.3162 291.484 16.4984 292.381 16.8629C293.278 17.2273 293.923 17.739 294.315 18.3978C294.722 19.0426 294.925 19.7995 294.925 20.6686C294.925 21.4956 294.729 22.2526 294.336 22.9394C293.944 23.6123 293.355 24.1449 292.57 24.5374C291.785 24.9299 290.79 25.1262 289.584 25.1262Z" fill="white"/>
<circle cx="241.513" cy="18.0576" r="17.9736" fill="black"/>
<path d="M233.909 25L233.909 10.9124L234.582 11.6273L230.44 11.6273L230.44 10.2817L235.423 10.2817L235.423 25L233.909 25ZM238.689 21.1312L238.689 20.0378L246.49 10.2817L248.172 10.2817L240.434 20.0378L239.614 19.7855L251.452 19.7855L251.452 21.1312L238.689 21.1312ZM246.995 25L246.995 21.1312L247.037 19.7855L247.037 16.3793L248.508 16.3793L248.508 25L246.995 25Z" fill="white"/>
<circle cx="196.81" cy="18.0576" r="17.9736" fill="#FF0000"/>
<path d="M191.447 10.2817L191.447 25L189.934 25L189.934 11.6273L186.464 11.6273L186.464 10.2817L191.447 10.2817ZM199.97 16.5895C201.512 16.6736 202.682 17.0941 203.481 17.8511C204.294 18.594 204.701 19.5682 204.701 20.7737C204.701 21.6148 204.498 22.3647 204.091 23.0235C203.685 23.6683 203.082 24.18 202.283 24.5584C201.484 24.9369 200.51 25.1262 199.36 25.1262C198.295 25.1262 197.286 24.9579 196.332 24.6215C195.393 24.2711 194.636 23.8085 194.062 23.2338L194.797 22.0353C195.288 22.5399 195.94 22.9534 196.753 23.2759C197.566 23.5842 198.435 23.7384 199.36 23.7384C200.566 23.7384 201.498 23.4791 202.157 22.9605C202.815 22.4278 203.145 21.6989 203.145 20.7737C203.145 19.8626 202.815 19.1477 202.157 18.6291C201.498 18.1104 200.503 17.8511 199.171 17.8511L198.12 17.8511L198.12 16.7367L202.199 11.6273L194.671 11.6273L194.671 10.2817L204.133 10.2817L204.133 11.354L199.97 16.5895Z" fill="white"/>
<circle cx="152.099" cy="18.0576" r="17.9736" fill="#D9D9D9"/>
<path d="M145.885 25L145.885 10.9124L146.557 11.6273L142.415 11.6273L142.415 10.2817L147.399 10.2817L147.399 25L145.885 25ZM150.643 25L150.643 23.9277L156.762 17.9352C157.323 17.3885 157.743 16.9119 158.024 16.5054C158.304 16.0849 158.493 15.6924 158.591 15.3279C158.69 14.9635 158.739 14.6201 158.739 14.2977C158.739 13.4426 158.444 12.7698 157.855 12.2791C157.281 11.7885 156.426 11.5432 155.29 11.5432C154.421 11.5432 153.65 11.6764 152.977 11.9427C152.319 12.2091 151.751 12.6226 151.274 13.1833L150.202 12.2581C150.777 11.5853 151.513 11.0666 152.41 10.7022C153.307 10.3377 154.309 10.1555 155.416 10.1555C156.412 10.1555 157.274 10.3167 158.003 10.6391C158.732 10.9475 159.292 11.4031 159.685 12.0058C160.091 12.6086 160.295 13.3164 160.295 14.1295C160.295 14.606 160.224 15.0756 160.084 15.5382C159.958 16.0008 159.72 16.4914 159.369 17.01C159.033 17.5147 158.535 18.0894 157.876 18.7342L152.262 24.2431L151.842 23.6543L160.967 23.6543L160.967 25L150.643 25Z" fill="black"/>
<circle cx="107.395" cy="18.0576" r="17.9736" fill="#D9D9D9"/>
<path d="M103.069 24L103.069 9.91244L103.742 10.6273L99.5997 10.6273L99.5997 9.28166L104.583 9.28166L104.583 24L103.069 24ZM110.666 24L110.666 9.91244L111.339 10.6273L107.197 10.6273L107.197 9.28166L112.18 9.28166L112.18 24L110.666 24Z" fill="black"/>
<circle cx="62.6767" cy="18.0576" r="17.9736" fill="#D9D9D9"/>
<path d="M55.8912 25L55.8912 10.9124L56.5641 11.6273L52.4219 11.6273L52.4219 10.2817L57.4051 10.2817L57.4051 25L55.8912 25ZM66.7897 25.1262C65.6543 25.1262 64.645 24.8318 63.7619 24.2431C62.8788 23.6403 62.185 22.7852 61.6803 21.6779C61.1757 20.5565 60.9234 19.2108 60.9234 17.6408C60.9234 16.0709 61.1757 14.7322 61.6803 13.6248C62.185 12.5034 62.8788 11.6484 63.7619 11.0596C64.645 10.4569 65.6543 10.1555 66.7897 10.1555C67.9251 10.1555 68.9344 10.4569 69.8175 11.0596C70.7006 11.6484 71.3945 12.5034 71.8991 13.6248C72.4177 14.7322 72.6771 16.0709 72.6771 17.6408C72.6771 19.2108 72.4177 20.5565 71.8991 21.6779C71.3945 22.7852 70.7006 23.6403 69.8175 24.2431C68.9344 24.8318 67.9251 25.1262 66.7897 25.1262ZM66.7897 23.7384C67.6588 23.7384 68.4157 23.5071 69.0605 23.0446C69.7054 22.568 70.21 21.8811 70.5744 20.984C70.9389 20.0729 71.1211 18.9585 71.1211 17.6408C71.1211 16.3232 70.9389 15.2158 70.5744 14.3187C70.21 13.4076 69.7054 12.7207 69.0605 12.2581C68.4157 11.7815 67.6588 11.5432 66.7897 11.5432C65.9487 11.5432 65.1987 11.7815 64.5399 12.2581C63.8811 12.7207 63.3695 13.4076 63.005 14.3187C62.6405 15.2158 62.4583 16.3232 62.4583 17.6408C62.4583 18.9585 62.6405 20.0729 63.005 20.984C63.3695 21.8811 63.8811 22.568 64.5399 23.0446C65.1987 23.5071 65.9487 23.7384 66.7897 23.7384Z" fill="black"/>
<circle cx="17.9736" cy="18.0576" r="17.9736" fill="#D9D9D9"/>
<path d="M17.7707 10.1555C19.0743 10.1555 20.1746 10.4499 21.0718 11.0386C21.9689 11.6133 22.6487 12.4474 23.1113 13.5407C23.5739 14.6341 23.8052 15.9587 23.8052 17.5147C23.8052 19.1687 23.5178 20.5635 22.9431 21.6989C22.3824 22.8343 21.5974 23.6894 20.5882 24.2641C19.5789 24.8388 18.4084 25.1262 17.0768 25.1262C16.418 25.1262 15.7872 25.0631 15.1844 24.9369C14.5957 24.8108 14.063 24.6075 13.5864 24.3272L14.1962 23.1076C14.5747 23.36 15.0092 23.5422 15.4998 23.6543C16.0045 23.7524 16.5231 23.8015 17.0558 23.8015C18.6397 23.8015 19.9013 23.2969 20.8405 22.2876C21.7937 21.2784 22.2703 19.7715 22.2703 17.767C22.2703 17.4446 22.2492 17.0591 22.2072 16.6105C22.1791 16.162 22.1021 15.7134 21.9759 15.2649L22.5015 15.6644C22.3614 16.3933 22.06 17.0171 21.5974 17.5357C21.1489 18.0403 20.5882 18.4258 19.9153 18.6921C19.2565 18.9585 18.5206 19.0916 17.7076 19.0916C16.7404 19.0916 15.8783 18.9094 15.1214 18.545C14.3784 18.1805 13.7967 17.6689 13.3762 17.01C12.9557 16.3512 12.7454 15.5733 12.7454 14.6761C12.7454 13.751 12.9627 12.952 13.3972 12.2791C13.8317 11.6063 14.4275 11.0877 15.1844 10.7232C15.9554 10.3447 16.8175 10.1555 17.7707 10.1555ZM17.8337 11.4381C17.1329 11.4381 16.5091 11.5713 15.9624 11.8376C15.4297 12.0899 15.0092 12.4544 14.7008 12.931C14.3924 13.4076 14.2383 13.9753 14.2383 14.6341C14.2383 15.6013 14.5677 16.3722 15.2265 16.947C15.8993 17.5217 16.8034 17.809 17.9389 17.809C18.6958 17.809 19.3546 17.6689 19.9153 17.3885C20.49 17.1082 20.9316 16.7227 21.24 16.2321C21.5624 15.7415 21.7236 15.1948 21.7236 14.592C21.7236 14.0453 21.5764 13.5337 21.282 13.0571C20.9877 12.5805 20.5531 12.195 19.9784 11.9007C19.4037 11.5923 18.6888 11.4381 17.8337 11.4381Z" fill="black"/>
</svg>
