<svg width="21" height="21" viewBox="0 0 21 21" fill="none" xmlns="http://www.w3.org/2000/svg">
<path d="M10.3911 0.795898C10.7273 0.795898 11.0497 0.928116 11.2875 1.16346C11.5252 1.39881 11.6587 1.71801 11.6587 2.05085V9.58055H19.2646C19.6008 9.58055 19.9232 9.71276 20.1609 9.94811C20.3987 10.1835 20.5322 10.5027 20.5322 10.8355C20.5322 11.1683 20.3987 11.4875 20.1609 11.7229C19.9232 11.9582 19.6008 12.0904 19.2646 12.0904H11.6587V19.6201C11.6587 19.953 11.5252 20.2722 11.2875 20.5075C11.0497 20.7429 10.7273 20.8751 10.3911 20.8751C10.0549 20.8751 9.73248 20.7429 9.49475 20.5075C9.25702 20.2722 9.12347 19.953 9.12347 19.6201V12.0904H1.51764C1.18144 12.0904 0.859011 11.9582 0.621283 11.7229C0.383555 11.4875 0.25 11.1683 0.25 10.8355C0.25 10.5027 0.383555 10.1835 0.621283 9.94811C0.859011 9.71276 1.18144 9.58055 1.51764 9.58055H9.12347V2.05085C9.12347 1.71801 9.25702 1.39881 9.49475 1.16346C9.73248 0.928116 10.0549 0.795898 10.3911 0.795898Z" fill="black"/>
</svg>
