<svg width="20" height="20" viewBox="0 0 20 20" fill="none" xmlns="http://www.w3.org/2000/svg">
<g clip-path="url(#clip0_4612_2219)">
<path d="M15.4167 13.3333C13.5783 13.3333 12.0833 11.8383 12.0833 10C12.0833 8.16167 13.5783 6.66667 15.4167 6.66667C17.255 6.66667 18.75 8.16167 18.75 10C18.75 11.8383 17.255 13.3333 15.4167 13.3333ZM10 6.66667C8.16167 6.66667 6.66667 5.17167 6.66667 3.33333C6.66667 1.495 8.16167 0 10 0C11.8383 0 13.3333 1.495 13.3333 3.33333C13.3333 5.17167 11.8383 6.66667 10 6.66667ZM4.58333 13.3333C2.745 13.3333 1.25 11.8383 1.25 10C1.25 8.16167 2.745 6.66667 4.58333 6.66667C6.42167 6.66667 7.91667 8.16167 7.91667 10C7.91667 11.8383 6.42167 13.3333 4.58333 13.3333ZM9.16667 20V17.5C9.16667 16.1425 8.08333 15.0442 6.735 15.0067L4.58333 17.5L2.39917 15.01C1.06583 15.0642 0 16.1533 0 17.5V20M20 20V17.5C20 16.1425 18.9167 15.0442 17.5683 15.0067L15.4167 17.5L13.2325 15.01C11.8992 15.0642 10.8333 16.1533 10.8333 17.5V20" fill="white"/>
</g>
<defs>
<clipPath id="clip0_4612_2219">
<rect width="20" height="20" fill="white"/>
</clipPath>
</defs>
</svg>
