<svg width="11" height="21" viewBox="0 0 11 21" fill="none" xmlns="http://www.w3.org/2000/svg">
<path fill-rule="evenodd" clip-rule="evenodd" d="M10.1056 1.06071C10.1743 1.131 10.2288 1.21451 10.2659 1.30645C10.3031 1.39839 10.3222 1.49695 10.3222 1.59649C10.3222 1.69603 10.3031 1.7946 10.2659 1.88653C10.2288 1.97847 10.1743 2.06198 10.1056 2.13228L1.78071 10.6776L10.1056 19.223C10.2441 19.3651 10.3218 19.5578 10.3218 19.7588C10.3218 19.9597 10.2441 20.1524 10.1056 20.2945C9.96724 20.4366 9.77952 20.5165 9.58377 20.5165C9.38803 20.5165 9.20031 20.4366 9.0619 20.2945L0.216554 11.2134C0.147909 11.1431 0.0934471 11.0596 0.0562871 10.9677C0.0191271 10.8757 0 10.7772 0 10.6776C0 10.5781 0.0191271 10.4795 0.0562871 10.3876C0.0934471 10.2956 0.147909 10.2121 0.216554 10.1418L9.0619 1.06071C9.13037 0.990232 9.21171 0.934318 9.30126 0.896167C9.39082 0.858017 9.48682 0.838379 9.58377 0.838379C9.68073 0.838379 9.77673 0.858017 9.86628 0.896167C9.95584 0.934318 10.0372 0.990232 10.1056 1.06071Z" fill="black"/>
</svg>
