<svg width="36" height="36" viewBox="0 0 36 36" fill="none" xmlns="http://www.w3.org/2000/svg">
<path d="M18.5 36V20.515L24.41 34.83L25.33 34.445L19.415 20.12L30.375 31.08L31.08 30.375L20.135 19.43L34.425 25.385L34.805 24.465L20.49 18.5H36V17.5H20.51L34.825 11.59L34.445 10.67L20.12 16.585L31.08 5.625L30.375 4.92L19.43 15.865L25.385 1.58L24.465 1.195L18.5 15.51V0H17.5V15.485L11.59 1.175L10.67 1.555L16.585 15.88L5.625 4.92L4.91998 5.625L15.865 16.57L1.57498 10.615L1.19501 11.535L15.51 17.5H0V18.5H15.49L1.17499 24.41L1.55499 25.33L15.88 19.415L4.91998 30.375L5.625 31.08L16.57 20.135L10.615 34.425L11.535 34.805L17.5 20.49V36H18.5Z" fill="#FF0000"/>
</svg>
