<svg width="335" height="310" viewBox="0 0 335 310" fill="none" xmlns="http://www.w3.org/2000/svg">
<path fill-rule="evenodd" clip-rule="evenodd" d="M302.998 246.035C320.671 246.035 334.998 231.708 334.998 214.035V32.9794C334.998 15.3063 320.671 0.979379 302.998 0.979378L32.5469 0.97937C14.8738 0.97937 0.546887 15.3063 0.546886 32.9794L0.546875 214.035C0.546874 231.708 14.8738 246.035 32.5469 246.035L148.603 246.035C166.104 246.035 180.29 260.222 180.29 277.722C180.29 295.222 194.477 309.409 211.978 309.409H232.585C250.085 309.409 264.272 295.222 264.272 277.722C264.272 260.222 278.458 246.035 295.959 246.035H302.998Z" fill="#FF0000"/>
</svg>
