<svg width="23" height="26" viewBox="0 0 23 26" fill="none" xmlns="http://www.w3.org/2000/svg">
<path d="M11.4851 0C11.9161 0 12.3294 0.171205 12.6341 0.475951C12.9389 0.780698 13.1101 1.19402 13.1101 1.625V10.1855L20.5233 5.90525C20.7082 5.79687 20.9127 5.72612 21.125 5.69709C21.3374 5.66806 21.5533 5.68131 21.7605 5.73609C21.9677 5.79087 22.162 5.88608 22.3323 6.01626C22.5025 6.14644 22.6453 6.309 22.7525 6.49459C22.8596 6.68018 22.929 6.88514 22.9566 7.09766C22.9842 7.31017 22.9696 7.52606 22.9134 7.73287C22.8573 7.93969 22.7607 8.13336 22.6294 8.30273C22.4981 8.4721 22.3346 8.61383 22.1483 8.71975L14.7351 13L22.1483 17.2803C22.3346 17.3862 22.4981 17.5279 22.6294 17.6973C22.7607 17.8666 22.8573 18.0603 22.9134 18.2671C22.9696 18.4739 22.9842 18.6898 22.9566 18.9023C22.929 19.1149 22.8596 19.3198 22.7525 19.5054C22.6453 19.691 22.5025 19.8536 22.3323 19.9837C22.162 20.1139 21.9677 20.2091 21.7605 20.2639C21.5533 20.3187 21.3374 20.3319 21.125 20.3029C20.9127 20.2739 20.7082 20.2031 20.5233 20.0947L13.1101 15.8145V24.375C13.1101 24.806 12.9389 25.2193 12.6341 25.524C12.3294 25.8288 11.9161 26 11.4851 26C11.0541 26 10.6408 25.8288 10.336 25.524C10.0313 25.2193 9.86009 24.806 9.86009 24.375V15.8145L2.44684 20.0947C2.26196 20.2031 2.05747 20.2739 1.84514 20.3029C1.63281 20.3319 1.41683 20.3187 1.20965 20.2639C1.00246 20.2091 0.808156 20.1139 0.637918 19.9837C0.467681 19.8536 0.324874 19.691 0.217719 19.5054C0.110564 19.3198 0.0411781 19.1149 0.0135553 18.9023C-0.0140674 18.6898 0.000618853 18.4739 0.0567687 18.2671C0.112919 18.0603 0.209423 17.8666 0.340726 17.6973C0.472028 17.5279 0.635536 17.3862 0.821835 17.2803L8.23509 13L0.821835 8.71975C0.451649 8.50273 0.18233 8.1481 0.0726487 7.73324C-0.0370324 7.31839 0.0218292 6.87699 0.236389 6.50537C0.450948 6.13376 0.803786 5.86209 1.21791 5.74966C1.63202 5.63723 2.0738 5.69316 2.44684 5.90525L9.86009 10.1855V1.625C9.86009 1.19402 10.0313 0.780698 10.336 0.475951C10.6408 0.171205 11.0541 0 11.4851 0V0Z" fill="black"/>
</svg>
