<svg width="153" height="79" viewBox="0 0 153 79" fill="none" xmlns="http://www.w3.org/2000/svg">
<path d="M78.625 79V13.1888L103.743 74.0275L107.652 72.3913L82.5137 11.51L129.094 58.09L132.09 55.0938L85.5737 8.5775L146.306 33.8863L147.921 29.9762L87.0825 4.625H153V0.375H87.1674L148.006 -24.7425L146.391 -28.6525L85.51 -3.51376L132.09 -50.0938L129.094 -53.09L82.5775 -6.57375L107.886 -67.285L103.976 -68.9212L78.625 -8.0825V-74H74.375V-8.18875L49.2575 -69.0063L45.3474 -67.3913L70.4862 -6.51L23.9062 -53.09L20.9099 -50.0938L67.4262 -3.5775L6.69367 -28.8862L5.07878 -24.9762L65.9174 0.375H0V4.625H65.8325L4.9937 29.7425L6.60872 33.6525L67.49 8.51376L20.9099 55.0938L23.9062 58.09L70.4225 11.5738L45.1137 72.3062L49.0238 73.9212L74.375 13.0825V79H78.625Z" fill="#C6C6C6"/>
</svg>
