<svg width="40" height="256" viewBox="0 0 40 256" fill="none" xmlns="http://www.w3.org/2000/svg">
<path d="M20 256C8.95431 256 6.03686e-07 246.79 5.63854e-07 235.43L6.86304e-09 76.57C-3.29695e-08 65.2095 8.95431 56 20 56C31.0457 56 40 65.2095 40 76.57L40 235.43C40 246.79 31.0457 256 20 256Z" fill="black"/>
<path fill-rule="evenodd" clip-rule="evenodd" d="M20 67.5942C20.2488 67.5942 20.4874 67.7037 20.6633 67.8985C20.8392 68.0933 20.9381 68.3576 20.9381 68.6331L20.9381 93.1365L26.8401 86.5977C27.0162 86.4026 27.2551 86.293 27.5042 86.293C27.7533 86.293 27.9922 86.4026 28.1683 86.5977C28.3445 86.7928 28.4434 87.0573 28.4434 87.3332C28.4434 87.6091 28.3445 87.8737 28.1683 88.0688L20.6642 96.3799C20.577 96.4767 20.4735 96.5534 20.3596 96.6058C20.2456 96.6582 20.1234 96.6851 20 96.6851C19.8767 96.6851 19.7545 96.6582 19.6405 96.6058C19.5266 96.5534 19.4231 96.4767 19.3359 96.3799L11.8318 88.0688C11.6556 87.8737 11.5567 87.6091 11.5567 87.3332C11.5567 87.0573 11.6556 86.7928 11.8318 86.5977C12.0079 86.4026 12.2468 86.293 12.4959 86.293C12.745 86.293 12.9839 86.4026 13.16 86.5977L19.062 93.1365L19.062 68.6331C19.062 68.3576 19.1608 68.0933 19.3368 67.8985C19.5127 67.7037 19.7513 67.5942 20 67.5942Z" fill="white"/>
<circle cx="20" cy="20" r="19" stroke="black" stroke-width="2"/>
<path fill-rule="evenodd" clip-rule="evenodd" d="M11.0469 29.5552C10.8733 29.3749 10.7758 29.1303 10.7758 28.8753C10.7758 28.6203 10.8733 28.3758 11.0469 28.1955L26.4822 12.1601L18.2456 12.1615C17.9998 12.1615 17.7641 12.0601 17.5903 11.8795C17.4166 11.699 17.3189 11.4541 17.3189 11.1988C17.3189 10.9435 17.4166 10.6986 17.5903 10.5181C17.7641 10.3375 17.9998 10.2361 18.2456 10.2361L28.7164 10.2361C28.8381 10.2359 28.9587 10.2607 29.0712 10.309C29.1837 10.3574 29.2859 10.4283 29.372 10.5177C29.4581 10.6071 29.5263 10.7133 29.5728 10.8302C29.6194 10.9471 29.6432 11.0723 29.6431 11.1988V22.0767C29.6431 22.332 29.5454 22.5769 29.3717 22.7574C29.1979 22.9379 28.9622 23.0394 28.7164 23.0394C28.4706 23.0394 28.2349 22.9379 28.0611 22.7574C27.8874 22.5769 27.7897 22.332 27.7897 22.0767L27.791 13.5199L12.3558 29.5552C12.1822 29.7355 11.9468 29.8368 11.7013 29.8368C11.4559 29.8368 11.2205 29.7355 11.0469 29.5552Z" fill="black"/>
</svg>
