<svg width="20" height="20" viewBox="0 0 20 20" fill="none" xmlns="http://www.w3.org/2000/svg">
<g clip-path="url(#clip0_4612_2369)">
<path d="M10 0C4.48583 0 0 4.48583 0 10C0 15.5142 4.48583 20 10 20C15.5142 20 20 15.5142 20 10C20 4.48583 15.5142 0 10 0ZM13.3333 10.8333H10C9.54 10.8333 9.16667 10.4608 9.16667 10V5C9.16667 4.53917 9.54 4.16667 10 4.16667C10.46 4.16667 10.8333 4.53917 10.8333 5V9.16667H13.3333C13.7942 9.16667 14.1667 9.53917 14.1667 10C14.1667 10.4608 13.7942 10.8333 13.3333 10.8333Z" fill="black"/>
</g>
<defs>
<clipPath id="clip0_4612_2369">
<rect width="20" height="20" fill="white"/>
</clipPath>
</defs>
</svg>
